<?xml version="1.0" encoding="utf-8"?>
<!-- Generator: Adobe Illustrator 17.0.0, SVG Export Plug-In . SVG Version: 6.00 Build 0)  -->
<!DOCTYPE svg PUBLIC "-//W3C//DTD SVG 1.1//EN" "http://www.w3.org/Graphics/SVG/1.1/DTD/svg11.dtd">
<svg version="1.1" id="Layer_1" xmlns="http://www.w3.org/2000/svg" xmlns:xlink="http://www.w3.org/1999/xlink" x="0px" y="0px"
	 width="640px" height="1136px" viewBox="0 0 640 1136" enable-background="new 0 0 640 1136" xml:space="preserve">
<g>
	
		<linearGradient id="SVGID_1_" gradientUnits="userSpaceOnUse" x1="235.6154" y1="523.5091" x2="235.6154" y2="684.6576" gradientTransform="matrix(1 0 0 -1 84 1111)">
		<stop  offset="0.6092" style="stop-color:#000000"/>
		<stop  offset="0.6155" style="stop-color:#0D0D0D"/>
		<stop  offset="0.6582" style="stop-color:#626262"/>
		<stop  offset="0.6959" style="stop-color:#A5A5A5"/>
		<stop  offset="0.7273" style="stop-color:#D6D6D6"/>
		<stop  offset="0.751" style="stop-color:#F4F4F4"/>
		<stop  offset="0.7645" style="stop-color:#FFFFFF"/>
	</linearGradient>
	<path fill="url(#SVGID_1_)" d="M319.329,587.47c1.547-10.375,1.133-10.45,0.745-21.005c-0.025-0.671-0.01-1.349-0.107-2.009
		c-0.151-1.032-0.55-1.522-1.716-1.202c-14.617,4.015-28.616,2.108-41.928-5.365c-7.747-4.349-14.113-10.362-18.349-18.702
		c-0.658-1.296-1.485-1.656-2.706-0.8c-2.678,1.877-5.395,3.69-8.059,5.589c-1.001,0.714-2.057,1.824-3.05,0.411
		c-0.983-1.398,0.249-2.395,1.204-3.079c2.766-1.983,5.55-3.956,8.448-5.704c1.4-0.844,1.584-1.57,1.108-3.173
		c-1.113-3.748-2.028-7.572-2.819-11.414c-0.148-0.72,0.65-1.663,1.011-2.503c0.628,0.613,1.602,1.109,1.824,1.859
		c1.09,3.684,1.98,7.435,2.94,11.162c0.3,1.163,1.001,1.581,2.055,1.175c5.52-2.128,11.228-2.849,17.063-2.65
		c0.115,0.004,0.235-0.136,0.623-0.376c-0.542-0.447-0.983-0.826-1.439-1.183c-10.13-7.935-17.208-17.967-18.878-31.654
		c-0.228-1.866-1.326-1.932-2.533-1.784c-3.936,0.484-7.861,1.069-11.792,1.595c-0.602,0.081-1.319,0.276-1.795,0.02
		c-0.444-0.239-1.012-1.258-0.872-1.497c0.401-0.685,1.073-1.513,1.744-1.637c3.423-0.634,6.866-1.251,10.326-1.52
		c4.551-0.354,4.463-0.223,4.919-5.114c0.234-2.504,0.748-5.01,1.438-7.416c0.219-0.764,1.414-1.209,2.162-1.8
		c0.237,0.892,0.761,1.823,0.659,2.669c-0.362,3.02-0.917,6.015-1.438,9.012c-0.317,1.822,0.209,2.801,2.061,2.992
		c8.68,0.9,15.621,5.495,21.724,11.834c0.521,0.541,1.092,1.026,2.017,1.283c-0.495-2.825-0.937-5.661-1.493-8.472
		c-1.814-9.16-1.468-18.231,1.053-27.177c0.492-1.748-0.047-2.432-1.428-2.998c-6.462-2.651-13.055-4.746-19.96-5.579
		c-0.208-0.025-0.419-0.037-0.622-0.087c-1.057-0.259-2.503-0.226-2.317-1.92c0.188-1.707,1.605-1.355,2.673-1.267
		c7.086,0.586,13.808,2.762,20.4,5.464c2.759,1.131,2.74,1.169,3.881-1.648c2.696-6.658,5.901-13.007,10.086-18.744
		c0.729-0.999,1.517-2.574,2.981-1.283c1.362,1.202,0.088,2.274-0.567,3.238c-3.953,5.812-7.275,11.993-9.888,18.627
		c-0.72,1.827-0.437,2.678,1.258,3.606c7.269,3.978,13.751,9.082,18.902,15.954c0.213,0.284,0.274,0.697,0.406,1.05
		c0.25-0.164,0.499-0.329,0.749-0.493c-0.227-0.995-0.443-1.993-0.683-2.985c-2.783-11.534-2.602-22.879,2.026-33.89
		c0.911-2.166,2.078-4.22,3.241-6.25c0.692-1.207,0.853-2.044-0.412-2.965c-3.193-2.326-6.351-4.713-9.436-7.2
		c-0.687-0.554-1.582-1.824-1.397-2.406c0.482-1.515,1.859-1.143,2.803-0.46c3.225,2.332,6.414,4.727,9.532,7.219
		c1.682,1.345,2.126,1.242,3.55-0.379c2.415-2.748,4.974-5.362,7.607-7.871c0.464-0.442,1.584-0.095,2.4-0.113
		c-0.199,0.893-0.13,2.062-0.643,2.631c-2.509,2.785-5.171,5.413-7.784,8.09c-0.981,1.005-1.017,1.932-0.049,3.047
		c8.26,9.52,11.351,20.953,10.823,33.71c-0.029,0.702-0.004,1.407-0.192,1.577c2.299-2.116,4.497-4.377,6.924-6.309
		c2.947-2.346,6.027-4.523,9.176-6.547c1.17-0.753,1.539-1.325,0.879-2.585c-1.498-2.855-2.941-5.745-4.479-8.575
		c-0.579-1.065-1.118-2.2,0.175-2.801c0.558-0.259,1.923,0.307,2.288,0.926c1.742,2.953,3.361,6.001,4.823,9.124
		c0.615,1.315,1.106,1.701,2.517,1.336c3.101-0.803,6.256-1.415,9.419-1.861c0.693-0.098,1.512,0.821,2.273,1.272
		c-0.631,0.605-1.182,1.564-1.908,1.754c-2.83,0.741-5.715,1.239-8.58,1.826c-1.405,0.288-1.957,0.995-1.576,2.655
		c2.499,10.896,0.955,21.254-3.772,31.167c-0.24,0.503-0.252,1.13-0.431,1.991c0.587-0.252,1.027-0.353,1.373-0.603
		c7.246-5.228,15.172-8.47,23.906-9.265c1.452-0.132,2.014-0.725,1.855-2.207c-0.459-4.284-0.915-8.568-1.386-12.85
		c-0.057-0.514-0.396-1.084-0.267-1.512c0.241-0.8,0.729-1.516,1.114-2.267c0.619,0.569,1.666,1.05,1.786,1.721
		c0.717,4.014,1.427,8.053,1.741,12.119c0.338,4.385,0.159,4.329,4.255,5.055c3.429,0.608,6.852,1.311,10.222,2.21
		c0.74,0.198,1.245,1.404,1.858,2.146c-0.885,0.314-1.818,1.002-2.645,0.877c-3.851-0.582-7.671-1.398-11.505-2.108
		c-1.424-0.264-2.216,0.316-2.363,1.957c-1.406,15.673-9.058,27.553-19.951,37.449c-0.263,0.239-0.571,0.421-1.307,0.957
		c1.039,0.133,1.472,0.26,1.896,0.233c7.522-0.471,14.916-0.006,21.925,3.353c1.083,0.519,1.718,0.028,2.098-1.059
		c1.099-3.139,2.205-6.274,3.3-9.415c0.17-0.488,0.154-1.157,0.465-1.458c0.545-0.527,1.276-0.833,1.929-1.232
		c0.297,0.732,0.994,1.597,0.826,2.174c-1.077,3.689-2.208,7.376-3.608,10.934c-0.666,1.692-0.385,2.4,0.979,3.375
		c2.774,1.982,5.404,4.203,8.037,6.401c0.871,0.727,1.86,1.704,0.818,2.988c-1.057,1.304-1.947,0.274-2.846-0.477
		c-2.945-2.46-5.92-4.88-9.045-7.448c-1.61,2.341-2.75,4.223-4.096,5.917c-7.448,9.379-17.177,14.479-28.246,16.969
		c-7.532,1.694-15.09,1.449-22.641,0.093c-2.746-0.493-3.132-0.355-2.963,2.73c0.516,9.437,0.152,11.448,1.039,20.851
		 M290.368,464.839c-1.809,3.592-2.971,12.965-2.454,17.502c1.138,9.977,3.5,19.574,7.663,28.724
		c5.224,11.483,13.003,20.606,23.434,27.367c3.091,2.003,3.479,1.778,4.281-1.841c0.129-0.582,0.238-1.171,0.309-1.763
		c1.305-10.977,0.56-21.806-2.786-32.327c-4.956-15.583-13.41-28.463-27.915-36.433C292.112,465.636,291.282,465.28,290.368,464.839
		z M328.786,530.396c1.316-0.18,2.096-0.251,2.862-0.396c6.342-1.203,11.963-4.385,17.523-7.388
		c7.649-4.132,13.549-10.464,18.195-17.972c3.33-5.382,5.302-11.222,5.991-17.546c0.15-1.374-0.142-2.017-1.621-1.874
		c-5.906,0.573-11.555,2.237-16.633,5.259c-12.13,7.219-20.461,17.812-25.263,31.281c-0.795,2.231-1.287,4.588-1.749,6.922
		C327.984,529.223,328.574,529.908,328.786,530.396z M317.532,545.151c-6.449-9.371-14.611-16.182-24.951-20.108
		c-9.574-3.635-19.274-4.558-29.057-0.688C266.985,539.808,302.737,553.76,317.532,545.151z M378.611,527.791
		c-3.969-2.158-7.725-3.048-11.598-3.488c-11.207-1.275-21.128,2.644-30.497,8.292c-4.25,2.562-8.055,5.856-11.121,9.906
		c-1.258,1.662-1.105,2.092,0.804,2.668c6.573,1.982,13.276,2.543,20.066,1.738c10.091-1.196,19.134-4.936,26.568-12.164
		C374.912,532.723,376.581,530.262,378.611,527.791z M348.919,460.807c-1.851,1.068-3.48,1.882-4.981,2.895
		c-6.743,4.547-11.262,10.961-14.348,18.463c-3.19,7.758-4.221,15.884-3.262,24.236c0.315,2.739,0.75,2.89,2.986,1.336
		c12.255-8.515,19.636-20.117,21.098-35.355C350.775,468.599,350.321,464.845,348.919,460.807z M322.353,490.785
		c0.643-1.065,1.011-1.597,1.303-2.168c3.979-7.775,5.92-16.026,5.387-24.816c-0.531-8.755-3.292-16.597-9.303-23.048
		c-0.2-0.215-0.506-0.327-0.888-0.565c-5.898,8.7-7.492,18.266-6.032,28.41C313.98,476.661,316.935,484.012,322.353,490.785z
		 M295.646,521.906c-0.124-1.036-0.116-1.898-0.34-2.692c-2.287-8.117-5.862-15.505-11.953-21.386
		c-5.155-4.977-10.906-8.804-18.197-9.631c-1.49-0.169-1.774,0.446-1.532,1.652c0.353,1.756,0.624,3.56,1.234,5.227
		c5.139,14.048,15.355,22.362,29.047,26.684C294.365,521.906,294.886,521.849,295.646,521.906z"/>
</g>
<text transform="matrix(1.0205 0 0 1 217.6924 632.0312)" fill="#070101" font-family="'BirchStd'" font-size="115.8748">verKauf</text>
<rect x="256.86" y="638.619" fill="#0F0202" width="147.099" height="3.002"/>
<polygon fill="#FFFFFF" points="324.734,545.313 325.065,545.929 324.734,546.723 323.676,547.648 322.288,548.904 321.098,549.896 
	320.239,550.888 319.71,552.011 319.71,553.268 319.71,558.424 319.71,564.771 319.71,568.473 320.635,572.043 321.892,575.679 
	322.883,578.72 323.676,580.901 324.007,580.901 326.651,569.663 330.354,554.788 330.75,553.73 330.75,552.673 330.221,551.284 
	328.965,549.764 328.04,548.375 327.114,547.185 326.255,546.326 326.321,545.731 326.453,545.313 "/>
</svg>
